<svg viewBox="0 0 27 28" fill="none" class="point point2"><path d="M13.5263 27.0331C20.9675 27.0331 26.9998 21.0007 26.9998 13.5595C26.9998 6.11825 20.9675 0.0859375 13.5263 0.0859375C6.08505 0.0859375 0.0527344 6.11825 0.0527344 13.5595C0.0527344 21.0007 6.08505 27.0331 13.5263 27.0331Z" fill="#FFA3B0"></path> <path d="M5.75084 14.0845C9.18929 15.1804 11.9041 17.8959 13.0001 21.3334C13.164 21.8469 13.8876 21.8469 14.0514 21.3334C15.1474 17.8951 17.863 15.1796 21.3007 14.0845C21.8142 13.9207 21.8142 13.1971 21.3007 13.0333C17.8622 11.9373 15.1474 9.22182 14.0514 5.78354C13.8876 5.27007 13.164 5.27007 13.0001 5.78354C11.9041 9.22182 9.18851 11.9373 5.75084 13.0333C5.23735 13.1963 5.23735 13.9207 5.75084 14.0845Z" fill="white"></path></svg>