<svg width="24" height="24" viewBox="0 0 24 24" fill="none" xmlns="http://www.w3.org/2000/svg">
<path opacity="0.7" d="M18.0251 19.5547C16.8185 20.5166 15.3992 21.1756 13.8858 21.4765C12.3724 21.7773 10.8089 21.7113 9.32619 21.284C7.8435 20.8567 6.48471 20.0805 5.36353 19.0204C4.24235 17.9602 3.39139 16.647 2.88184 15.1905C2.3723 13.734 2.219 12.1767 2.43478 10.6488C2.65055 9.12091 3.22912 7.66694 4.12207 6.40852C5.01502 5.15011 6.19638 4.12386 7.5673 3.41566C8.93821 2.70746 10.4588 2.33789 12.0018 2.33789" stroke="#128C7E" stroke-width="3" stroke-linecap="round" stroke-linejoin="round"/>
<path d="M18.0251 19.5547C16.8185 20.5166 15.3992 21.1756 13.8858 21.4765C12.3724 21.7773 10.8089 21.7113 9.32619 21.284C7.8435 20.8567 6.48471 20.0805 5.36353 19.0204C4.24235 17.9602 3.39139 16.647 2.88184 15.1905C2.3723 13.734 2.219 12.1767 2.43478 10.6488C2.65055 9.12091 3.22912 7.66694 4.12207 6.40852C5.01502 5.15011 6.19638 4.12386 7.5673 3.41566C8.93821 2.70746 10.4588 2.33789 12.0018 2.33789" stroke="white" stroke-width="3" stroke-linecap="round" stroke-linejoin="round"/>
<path opacity="0.7" d="M17.2511 3.88941C19.0692 5.06652 20.4391 6.82035 21.1408 8.86939C21.8425 10.9184 21.8355 13.1438 21.1208 15.1884" stroke="#128C7E" stroke-width="3" stroke-linecap="round" stroke-linejoin="round"/>
<path opacity="0.7" d="M17.2511 3.88941C19.0692 5.06652 20.4391 6.82035 21.1408 8.86939C21.8425 10.9184 21.8355 13.1438 21.1208 15.1884" stroke="#128C7E" stroke-width="3" stroke-linecap="round" stroke-linejoin="round"/>
</svg>
